<svg width="20" height="20" viewBox="0 0 20 20" fill="none" xmlns="http://www.w3.org/2000/svg">
<path d="M10.2124 3.95833C11.6874 3.95833 13.0082 4.46667 14.0499 5.45833L16.9041 2.60417C15.1707 0.991667 12.9082 0 10.2124 0C6.30405 0 2.92489 2.24167 1.27905 5.50833L4.60405 8.0875C5.39155 5.71667 7.60405 3.95833 10.2124 3.95833Z" fill="#EA4335"/>
<path d="M19.7874 10.2291C19.7874 9.57498 19.7249 8.94165 19.6291 8.33331H10.2124V12.0916H15.6041C15.3624 13.325 14.6624 14.375 13.6124 15.0833L16.8332 17.5833C18.7124 15.8416 19.7874 13.2666 19.7874 10.2291Z" fill="#4285F4"/>
<path d="M4.5999 11.9125C4.3999 11.3084 4.28324 10.6667 4.28324 10C4.28324 9.33336 4.39574 8.69169 4.5999 8.08753L1.2749 5.50836C0.595736 6.85836 0.212402 8.38336 0.212402 10C0.212402 11.6167 0.595736 13.1417 1.27907 14.4917L4.5999 11.9125Z" fill="#FBBC05"/>
<path d="M10.2124 20C12.9124 20 15.1832 19.1125 16.8332 17.5792L13.6124 15.0792C12.7166 15.6833 11.5624 16.0375 10.2124 16.0375C7.60407 16.0375 5.39157 14.2792 4.5999 11.9083L1.2749 14.4875C2.9249 17.7583 6.30407 20 10.2124 20Z" fill="#34A853"/>
</svg>
